<mxfile host="app.diagrams.net" agent="Mozilla/5.0 (Macintosh; Intel Mac OS X 10_15_7) AppleWebKit/605.1.15 (KHTML, like Gecko) Version/18.3 Safari/605.1.15" version="26.0.11">
  <diagram name="Seite-1" id="SF3XndFr73RNwVDA75Eq">
    <mxGraphModel>
      <root>
        <mxCell id="0" />
        <mxCell id="1" parent="0" />
        <mxCell id="2" value="Musician" style="whiteSpace=wrap;strokeWidth=2;" vertex="1" parent="1">
          <mxGeometry x="8" y="60" width="121" height="54" as="geometry" />
        </mxCell>
        <mxCell id="3" value="Instrument" style="whiteSpace=wrap;strokeWidth=2;" vertex="1" parent="1">
          <mxGeometry x="257" y="8" width="138" height="54" as="geometry" />
        </mxCell>
        <mxCell id="4" value="Band" style="whiteSpace=wrap;strokeWidth=2;" vertex="1" parent="1">
          <mxGeometry x="278" y="112" width="95" height="54" as="geometry" />
        </mxCell>
        <mxCell id="5" value="Song" style="whiteSpace=wrap;strokeWidth=2;" vertex="1" parent="1">
          <mxGeometry x="518" y="112" width="93" height="54" as="geometry" />
        </mxCell>
        <mxCell id="6" value="plays" style="curved=1;startArrow=none;endArrow=block;exitX=1;exitY=0.03;entryX=0;entryY=0.5;" edge="1" parent="1" source="2" target="3">
          <mxGeometry relative="1" as="geometry">
            <Array as="points">
              <mxPoint x="193" y="35" />
            </Array>
          </mxGeometry>
        </mxCell>
        <mxCell id="7" value="belongs to" style="curved=1;startArrow=none;endArrow=block;exitX=1;exitY=0.97;entryX=0;entryY=0.5;" edge="1" parent="1" source="2" target="4">
          <mxGeometry relative="1" as="geometry">
            <Array as="points">
              <mxPoint x="193" y="139" />
            </Array>
          </mxGeometry>
        </mxCell>
        <mxCell id="8" value="composes" style="curved=1;startArrow=none;endArrow=block;exitX=1;exitY=0.5;entryX=0;entryY=0.5;" edge="1" parent="1" source="4" target="5">
          <mxGeometry relative="1" as="geometry">
            <Array as="points" />
          </mxGeometry>
        </mxCell>
      </root>
    </mxGraphModel>
  </diagram>
</mxfile>
